<svg xmlns="http://www.w3.org/2000/svg" xmlns:xlink="http://www.w3.org/1999/xlink" width="1720" zoomAndPan="magnify" viewBox="0 0 1290 383.249997" height="511" preserveAspectRatio="xMidYMid meet" version="1.0"><defs><g/><clipPath id="2397f8f29e"><path d="M 1.261719 93.042969 L 175.667969 93.042969 L 175.667969 289 L 1.261719 289 Z M 1.261719 93.042969 " clip-rule="nonzero"/></clipPath></defs><g fill="#292838" fill-opacity="1"><g transform="translate(227.770884, 249.23881)"><g><path d="M 71.5 -95.65625 C 82.425781 -95.65625 91.097656 -92.019531 97.515625 -84.75 C 103.941406 -77.488281 107.15625 -67.660156 107.15625 -55.265625 L 107.15625 0 L 74.03125 0 L 74.03125 -50.875 C 74.03125 -56.28125 72.617188 -60.53125 69.796875 -63.625 C 66.984375 -66.726562 63.210938 -68.28125 58.484375 -68.28125 C 53.523438 -68.28125 49.632812 -66.726562 46.8125 -63.625 C 44 -60.53125 42.59375 -56.28125 42.59375 -50.875 L 42.59375 0 L 9.46875 0 L 9.46875 -94.8125 L 42.59375 -94.8125 L 42.59375 -81.296875 C 45.519531 -85.578125 49.460938 -89.039062 54.421875 -91.6875 C 59.378906 -94.332031 65.070312 -95.65625 71.5 -95.65625 Z M 71.5 -95.65625 "/></g></g></g><g fill="#292838" fill-opacity="1"><g transform="translate(339.481983, 249.23881)"><g><path d="M 100.0625 -48.5 C 100.0625 -45.914062 99.890625 -43.328125 99.546875 -40.734375 L 36.84375 -40.734375 C 37.1875 -35.546875 38.625 -31.6875 41.15625 -29.15625 C 43.6875 -26.625 46.925781 -25.359375 50.875 -25.359375 C 56.394531 -25.359375 60.335938 -27.832031 62.703125 -32.78125 L 98.03125 -32.78125 C 96.5625 -26.25 93.710938 -20.421875 89.484375 -15.296875 C 85.265625 -10.171875 79.941406 -6.140625 73.515625 -3.203125 C 67.097656 -0.273438 60 1.1875 52.21875 1.1875 C 42.875 1.1875 34.566406 -0.78125 27.296875 -4.71875 C 20.023438 -8.664062 14.332031 -14.300781 10.21875 -21.625 C 6.113281 -28.957031 4.0625 -37.582031 4.0625 -47.5 C 4.0625 -57.40625 6.085938 -65.992188 10.140625 -73.265625 C 14.191406 -80.535156 19.851562 -86.140625 27.125 -90.078125 C 34.394531 -94.023438 42.757812 -96 52.21875 -96 C 61.570312 -96 69.851562 -94.082031 77.0625 -90.25 C 84.28125 -86.425781 89.914062 -80.9375 93.96875 -73.78125 C 98.03125 -66.625 100.0625 -58.195312 100.0625 -48.5 Z M 66.25 -56.796875 C 66.25 -60.847656 64.894531 -64.023438 62.1875 -66.328125 C 59.488281 -68.640625 56.113281 -69.796875 52.0625 -69.796875 C 48 -69.796875 44.671875 -68.695312 42.078125 -66.5 C 39.492188 -64.3125 37.804688 -61.078125 37.015625 -56.796875 Z M 66.25 -56.796875 "/></g></g></g><g fill="#292838" fill-opacity="1"><g transform="translate(439.362822, 249.23881)"><g><path d="M 26.203125 -103.609375 C 20.335938 -103.609375 15.628906 -105.210938 12.078125 -108.421875 C 8.535156 -111.628906 6.765625 -115.660156 6.765625 -120.515625 C 6.765625 -125.460938 8.535156 -129.570312 12.078125 -132.84375 C 15.628906 -136.113281 20.335938 -137.75 26.203125 -137.75 C 31.941406 -137.75 36.585938 -136.113281 40.140625 -132.84375 C 43.691406 -129.570312 45.46875 -125.460938 45.46875 -120.515625 C 45.46875 -115.660156 43.691406 -111.628906 40.140625 -108.421875 C 36.585938 -105.210938 31.941406 -103.609375 26.203125 -103.609375 Z M 42.59375 -94.8125 L 42.59375 0 L 9.46875 0 L 9.46875 -94.8125 Z M 42.59375 -94.8125 "/></g></g></g><g fill="#292838" fill-opacity="1"><g transform="translate(487.190536, 249.23881)"><g><path d="M 42.59375 -125.078125 L 42.59375 0 L 9.46875 0 L 9.46875 -125.078125 Z M 42.59375 -125.078125 "/></g></g></g><g fill="#292838" fill-opacity="1"><g transform="translate(535.018274, 249.23881)"><g><path d="M 42.59375 -125.078125 L 42.59375 0 L 9.46875 0 L 9.46875 -125.078125 Z M 42.59375 -125.078125 "/></g></g></g><g fill="#292838" fill-opacity="1"><g transform="translate(582.846013, 249.23881)"><g><path d="M 53.578125 1.1875 C 44.109375 1.1875 35.628906 -0.78125 28.140625 -4.71875 C 20.648438 -8.664062 14.765625 -14.300781 10.484375 -21.625 C 6.203125 -28.957031 4.0625 -37.582031 4.0625 -47.5 C 4.0625 -57.300781 6.226562 -65.863281 10.5625 -73.1875 C 14.90625 -80.507812 20.820312 -86.140625 28.3125 -90.078125 C 35.800781 -94.023438 44.28125 -96 53.75 -96 C 63.207031 -96 71.679688 -94.023438 79.171875 -90.078125 C 86.671875 -86.140625 92.585938 -80.507812 96.921875 -73.1875 C 101.265625 -65.863281 103.4375 -57.300781 103.4375 -47.5 C 103.4375 -37.6875 101.265625 -29.085938 96.921875 -21.703125 C 92.585938 -14.328125 86.644531 -8.664062 79.09375 -4.71875 C 71.550781 -0.78125 63.046875 1.1875 53.578125 1.1875 Z M 53.578125 -27.546875 C 58.191406 -27.546875 62.046875 -29.265625 65.140625 -32.703125 C 68.242188 -36.140625 69.796875 -41.070312 69.796875 -47.5 C 69.796875 -53.914062 68.242188 -58.8125 65.140625 -62.1875 C 62.046875 -65.570312 58.25 -67.265625 53.75 -67.265625 C 49.238281 -67.265625 45.460938 -65.570312 42.421875 -62.1875 C 39.378906 -58.8125 37.859375 -53.914062 37.859375 -47.5 C 37.859375 -40.957031 39.320312 -35.992188 42.25 -32.609375 C 45.175781 -29.234375 48.953125 -27.546875 53.578125 -27.546875 Z M 53.578125 -27.546875 "/></g></g></g><g fill="#292838" fill-opacity="1"><g transform="translate(686.106918, 249.23881)"><g><path d="M 42.59375 -78.078125 C 46.3125 -83.492188 50.816406 -87.773438 56.109375 -90.921875 C 61.410156 -94.078125 67.101562 -95.65625 73.1875 -95.65625 L 73.1875 -60.34375 L 63.890625 -60.34375 C 56.679688 -60.34375 51.328125 -58.929688 47.828125 -56.109375 C 44.335938 -53.296875 42.59375 -48.394531 42.59375 -41.40625 L 42.59375 0 L 9.46875 0 L 9.46875 -94.8125 L 42.59375 -94.8125 Z M 42.59375 -78.078125 "/></g></g></g><g fill="#292838" fill-opacity="1"><g transform="translate(757.42616, 249.23881)"><g><path d="M 42.59375 -78.078125 C 46.3125 -83.492188 50.816406 -87.773438 56.109375 -90.921875 C 61.410156 -94.078125 67.101562 -95.65625 73.1875 -95.65625 L 73.1875 -60.34375 L 63.890625 -60.34375 C 56.679688 -60.34375 51.328125 -58.929688 47.828125 -56.109375 C 44.335938 -53.296875 42.59375 -48.394531 42.59375 -41.40625 L 42.59375 0 L 9.46875 0 L 9.46875 -94.8125 L 42.59375 -94.8125 Z M 42.59375 -78.078125 "/></g></g></g><g fill="#292838" fill-opacity="1"><g transform="translate(828.745403, 249.23881)"><g><path d="M 4.0625 -47.5 C 4.0625 -57.300781 5.832031 -65.863281 9.375 -73.1875 C 12.925781 -80.507812 17.769531 -86.140625 23.90625 -90.078125 C 30.050781 -94.023438 36.898438 -96 44.453125 -96 C 50.984375 -96 56.613281 -94.703125 61.34375 -92.109375 C 66.082031 -89.515625 69.75 -86.023438 72.34375 -81.640625 L 72.34375 -94.8125 L 105.46875 -94.8125 L 105.46875 0 L 72.34375 0 L 72.34375 -13.1875 C 69.75 -8.789062 66.054688 -5.296875 61.265625 -2.703125 C 56.472656 -0.109375 50.867188 1.1875 44.453125 1.1875 C 36.898438 1.1875 30.050781 -0.78125 23.90625 -4.71875 C 17.769531 -8.664062 12.925781 -14.328125 9.375 -21.703125 C 5.832031 -29.085938 4.0625 -37.6875 4.0625 -47.5 Z M 72.34375 -47.5 C 72.34375 -53.582031 70.675781 -58.367188 67.34375 -61.859375 C 64.019531 -65.347656 59.9375 -67.09375 55.09375 -67.09375 C 50.132812 -67.09375 46.019531 -65.375 42.75 -61.9375 C 39.488281 -58.507812 37.859375 -53.695312 37.859375 -47.5 C 37.859375 -41.40625 39.488281 -36.582031 42.75 -33.03125 C 46.019531 -29.488281 50.132812 -27.71875 55.09375 -27.71875 C 59.9375 -27.71875 64.019531 -29.460938 67.34375 -32.953125 C 70.675781 -36.453125 72.34375 -41.300781 72.34375 -47.5 Z M 72.34375 -47.5 "/></g></g></g><g fill="#292838" fill-opacity="1"><g transform="translate(939.442474, 249.23881)"><g><path d="M 26.203125 -103.609375 C 20.335938 -103.609375 15.628906 -105.210938 12.078125 -108.421875 C 8.535156 -111.628906 6.765625 -115.660156 6.765625 -120.515625 C 6.765625 -125.460938 8.535156 -129.570312 12.078125 -132.84375 C 15.628906 -136.113281 20.335938 -137.75 26.203125 -137.75 C 31.941406 -137.75 36.585938 -136.113281 40.140625 -132.84375 C 43.691406 -129.570312 45.46875 -125.460938 45.46875 -120.515625 C 45.46875 -115.660156 43.691406 -111.628906 40.140625 -108.421875 C 36.585938 -105.210938 31.941406 -103.609375 26.203125 -103.609375 Z M 42.59375 -94.8125 L 42.59375 0 L 9.46875 0 L 9.46875 -94.8125 Z M 42.59375 -94.8125 "/></g></g></g><g fill="#292838" fill-opacity="1"><g transform="translate(987.270213, 249.23881)"><g><path d="M 71.5 -95.65625 C 82.425781 -95.65625 91.097656 -92.019531 97.515625 -84.75 C 103.941406 -77.488281 107.15625 -67.660156 107.15625 -55.265625 L 107.15625 0 L 74.03125 0 L 74.03125 -50.875 C 74.03125 -56.28125 72.617188 -60.53125 69.796875 -63.625 C 66.984375 -66.726562 63.210938 -68.28125 58.484375 -68.28125 C 53.523438 -68.28125 49.632812 -66.726562 46.8125 -63.625 C 44 -60.53125 42.59375 -56.28125 42.59375 -50.875 L 42.59375 0 L 9.46875 0 L 9.46875 -94.8125 L 42.59375 -94.8125 L 42.59375 -81.296875 C 45.519531 -85.578125 49.460938 -89.039062 54.421875 -91.6875 C 59.378906 -94.332031 65.070312 -95.65625 71.5 -95.65625 Z M 71.5 -95.65625 "/></g></g></g><g fill="#292838" fill-opacity="1"><g transform="translate(1098.981325, 249.23881)"><g><path d="M 100.0625 -48.5 C 100.0625 -45.914062 99.890625 -43.328125 99.546875 -40.734375 L 36.84375 -40.734375 C 37.1875 -35.546875 38.625 -31.6875 41.15625 -29.15625 C 43.6875 -26.625 46.925781 -25.359375 50.875 -25.359375 C 56.394531 -25.359375 60.335938 -27.832031 62.703125 -32.78125 L 98.03125 -32.78125 C 96.5625 -26.25 93.710938 -20.421875 89.484375 -15.296875 C 85.265625 -10.171875 79.941406 -6.140625 73.515625 -3.203125 C 67.097656 -0.273438 60 1.1875 52.21875 1.1875 C 42.875 1.1875 34.566406 -0.78125 27.296875 -4.71875 C 20.023438 -8.664062 14.332031 -14.300781 10.21875 -21.625 C 6.113281 -28.957031 4.0625 -37.582031 4.0625 -47.5 C 4.0625 -57.40625 6.085938 -65.992188 10.140625 -73.265625 C 14.191406 -80.535156 19.851562 -86.140625 27.125 -90.078125 C 34.394531 -94.023438 42.757812 -96 52.21875 -96 C 61.570312 -96 69.851562 -94.082031 77.0625 -90.25 C 84.28125 -86.425781 89.914062 -80.9375 93.96875 -73.78125 C 98.03125 -66.625 100.0625 -58.195312 100.0625 -48.5 Z M 66.25 -56.796875 C 66.25 -60.847656 64.894531 -64.023438 62.1875 -66.328125 C 59.488281 -68.640625 56.113281 -69.796875 52.0625 -69.796875 C 48 -69.796875 44.671875 -68.695312 42.078125 -66.5 C 39.492188 -64.3125 37.804688 -61.078125 37.015625 -56.796875 Z M 66.25 -56.796875 "/></g></g></g><g clip-path="url(#2397f8f29e)"><path fill="#378cd1" d="M 1.261719 240.269531 L 1.261719 185.816406 L 41.4375 163.03125 L 41.4375 216.90625 L 127.65625 265.867188 L 87.011719 288.941406 Z M 175.4375 93.261719 L 135.261719 116.042969 L 135.261719 169.132812 L 1.261719 93.089844 L 1.261719 139.238281 L 175.4375 238.066406 Z M 175.4375 93.261719 " fill-opacity="1" fill-rule="nonzero"/></g></svg>